# xmcd
#
# Track frame offsets:
#	182
#	19882
#	34120
#	52295
#	71390
#	89365
#	105807
#	122032
#	134482
#	148532
#	163682
#	175895
#
# Disc length: 2570 seconds
#
# Revision: 0
# Processed by: cddbd v1.5.1PL0 Copyright (c) Steve Scherf et al.
# Submitted via: audiograbber 1.82.01
#
DISCID=a40a080c
DTITLE=Inga Rumpf - Walking In The Light
DYEAR=1999
DGENRE=Blues
TTITLE0=How The Gypsy Was Born
TTITLE1=Transformation
TTITLE2=What Would I Do (Without Your Love)
TTITLE3=Walking In The Light
TTITLE4=Only God Makes Stars
TTITLE5=Power And Peace
TTITLE6=Tell Me Good News
TTITLE7=Jesus Is The King
TTITLE8=Draw Me Up
TTITLE9=Make My Day
TTITLE10=Long Is The Journey
TTITLE11=We Sail Away
EXTD=YEAR: 1999 ID3G:  38
EXTT0=
EXTT1=
EXTT2=
EXTT3=
EXTT4=
EXTT5=
EXTT6=
EXTT7=
EXTT8=
EXTT9=
EXTT10=
EXTT11=
PLAYORDER=
